# File created by Blade
# Date/Time:  Thu Sep 25 18:48:06 2014
# Frame Rate: 120.000 fps
#------------------------------------------------------
:FULLY-SPECIFIED
:DEGREES
1015
root 1.243382 32.749430 0.700303 13.144438 5.032752 1.133255
Spine -14.793451 5.740392 -1.544175
Head -14.168191 -8.403407 2.050700
LeftShoulder -10.618299 20.960399 9.777821
LeftArm 21.067728 31.341936 -70.053029
LeftForeArm -0.163939 -0.000000 27.043714
LeftHand -20.062631 -0.000000 -16.969214
LeftHandThumb1 -26.253704 0.000000 33.147579
RightShoulder -19.440895 7.932992 -20.348731
RightArm -15.433341 -31.015346 89.138918
RightForeArm -21.650042 -0.000000 32.933684
RightHand -1.889307 -0.000000 26.443946
RightHandThumb1 -24.326973 -0.000000 -32.862282
LeftUpLeg -10.639957 6.238184 1.628906
LeftLeg 1.483230 -0.000000 -0.000000
LeftFoot -10.167798 1.821705 -11.894289
LeftToeBase 11.663013 -0.000000 -0.000000
RightUpLeg -9.775469 -11.803686 -5.272459
RightLeg 4.431990 -0.000000 -0.000000
RightFoot -9.852655 -7.027129 5.488436
RightToeBase 1.732733 -0.000000 -0.000000
1016
root 1.244957 32.749094 0.717692 13.049183 5.008555 1.095608
Spine -14.941943 5.728399 -1.563826
Head -13.816330 -8.395364 2.290816
LeftShoulder -10.498266 20.852523 9.789869
LeftArm 21.613025 31.147837 -69.395900
LeftForeArm -0.010429 0.000000 27.052346
LeftHand -19.767627 -0.000000 -17.365262
LeftHandThumb1 -26.253704 0.000000 33.147579
RightShoulder -19.334250 8.051109 -20.390307
RightArm -14.838650 -30.774274 88.490201
RightForeArm -21.623705 0.000000 34.013453
RightHand -2.034051 -0.000000 26.534027
RightHandThumb1 -24.326973 -0.000000 -32.862282
LeftUpLeg -10.459368 6.312409 1.671002
LeftLeg 1.368343 -0.000000 -0.000000
LeftFoot -10.128361 1.764581 -11.928916
LeftToeBase 11.636381 -0.000000 -0.000000
RightUpLeg -9.628421 -11.791260 -5.259189
RightLeg 4.373996 -0.000000 -0.000000
RightFoot -9.842395 -6.996615 5.535950
RightToeBase 1.805340 -0.000000 -0.000000
1017
root 1.236240 32.749449 0.727796 13.002580 4.980852 1.004771
Spine -15.146072 5.713116 -1.542737
Head -13.475559 -8.416254 2.529216
LeftShoulder -10.385500 20.740590 9.799630
LeftArm 22.147733 30.865367 -68.717283
LeftForeArm 0.141741 -0.000000 27.060683
LeftHand -19.450270 -0.000000 -17.714348
LeftHandThumb1 -26.253704 0.000000 33.147579
RightShoulder -19.222582 8.209786 -20.458297
RightArm -14.283498 -30.434511 87.893026
RightForeArm -21.882621 -0.000000 35.097452
RightHand -2.105535 -0.000000 26.218171
RightHandThumb1 -24.326973 -0.000000 -32.862282
LeftUpLeg -10.362657 6.410049 1.777920
LeftLeg 1.294888 -0.000000 -0.000000
LeftFoot -10.108922 1.659662 -12.006474
LeftToeBase 11.625789 -0.000000 -0.000000
RightUpLeg -9.568913 -11.967004 -5.135667
RightLeg 4.317351 -0.000000 -0.000000
RightFoot -9.737443 -6.805020 5.449877
RightToeBase 1.756605 -0.000000 -0.000000
1018
root 1.243894 32.749657 0.741163 12.930426 4.954243 1.003960
Spine -15.319718 5.704886 -1.593771
Head -13.074051 -8.392744 2.749655
LeftShoulder -10.292609 20.632982 9.801694
LeftArm 22.739091 30.509153 -68.030989
LeftForeArm 0.285130 -0.000000 27.013499
LeftHand -19.260807 -0.000000 -18.072413
LeftHandThumb1 -26.253704 0.000000 33.147579
RightShoulder -19.156423 8.308957 -20.519747
RightArm -13.580219 -30.102217 87.174888
RightForeArm -21.870065 -0.000000 36.160756
RightHand -2.024704 -0.000000 26.439873
RightHandThumb1 -24.326973 -0.000000 -32.862282
LeftUpLeg -10.146989 6.214194 1.823474
LeftLeg 1.067923 -0.000000 -0.000000
LeftFoot -10.062156 1.830642 -12.083660
LeftToeBase 11.681868 -0.000000 -0.000000
RightUpLeg -9.449890 -11.947054 -5.170852
RightLeg 4.259815 -0.000000 -0.000000
RightFoot -9.698041 -6.796946 5.471974
RightToeBase 1.700890 -0.000000 -0.000000
1019
root 1.248171 32.749547 0.755150 12.869864 4.930861 0.998481
Spine -15.507630 5.671146 -1.637635
Head -12.694803 -8.420542 2.960822
LeftShoulder -10.222002 20.476012 9.819428
LeftArm 23.254899 30.085787 -67.352248
LeftForeArm 0.196266 -0.000000 27.010857
LeftHand -18.923736 0.000000 -18.370705
LeftHandThumb1 -26.253704 0.000000 33.147579
RightShoulder -19.055076 8.431126 -20.586835
RightArm -12.958273 -29.679268 86.505567
RightForeArm -21.831580 -0.000000 37.397249
RightHand -2.280545 -0.000000 26.020757
RightHandThumb1 -24.326973 -0.000000 -32.862282
LeftUpLeg -10.064566 6.427108 1.787398
LeftLeg 1.068167 -0.000000 -0.000000
LeftFoot -10.051067 1.696975 -11.994751
LeftToeBase 11.669228 -0.000000 -0.000000
RightUpLeg -9.332644 -11.959366 -5.185241
RightLeg 4.177826 -0.000000 -0.000000
RightFoot -9.628212 -6.788507 5.427826
RightToeBase 1.623355 -0.000000 -0.000000
1020
root 1.251933 32.749775 0.770467 12.788729 4.908602 0.984178
Spine -15.673355 5.651358 -1.664105
Head -12.281738 -8.431911 3.145772
LeftShoulder -10.130752 20.242984 9.824511
LeftArm 23.681946 29.530038 -66.712280
LeftForeArm 0.017617 -0.000000 27.023853
LeftHand -18.795377 -0.000000 -18.742739
LeftHandThumb1 -26.253704 0.000000 33.147579
RightShoulder -18.943285 8.637989 -20.728696
RightArm -12.476565 -29.195247 85.923171
RightForeArm -21.984649 0.000000 38.661739
RightHand -2.234205 -0.000000 25.977446
RightHandThumb1 -24.326973 -0.000000 -32.862282
LeftUpLeg -9.851183 6.268456 1.845600
LeftLeg 0.868355 -0.000000 -0.000000
LeftFoot -10.008148 1.824238 -12.138728
LeftToeBase 11.714561 -0.000000 -0.000000
RightUpLeg -9.193724 -12.007859 -5.192945
RightLeg 4.102894 -0.000000 -0.000000
RightFoot -9.603224 -6.694857 5.484029
RightToeBase 1.648420 -0.000000 -0.000000
1021
root 1.251383 32.750111 0.779848 12.745708 4.849236 0.956829
Spine -15.882399 5.702395 -1.721787
Head -11.854072 -8.506706 3.365015
LeftShoulder -10.025768 20.032656 9.854864
LeftArm 24.137224 28.972061 -65.993226
LeftForeArm -0.004915 -0.000000 27.173960
LeftHand -18.690772 -0.000000 -18.809460
LeftHandThumb1 -26.253704 0.000000 33.147579
RightShoulder -18.868566 8.777048 -20.817500
RightArm -11.877686 -28.811415 85.255759
RightForeArm -21.891891 -0.000000 39.953775
RightHand -2.294404 -0.000000 25.788038
RightHandThumb1 -24.326973 -0.000000 -32.862282
LeftUpLeg -9.805618 6.535083 1.824901
LeftLeg 0.898517 -0.000000 -0.000000
LeftFoot -10.003310 1.678976 -12.029494
LeftToeBase 11.673111 -0.000000 -0.000000
RightUpLeg -9.124475 -12.004758 -5.176049
RightLeg 4.044900 -0.000000 -0.000000
RightFoot -9.531490 -6.677366 5.399370
RightToeBase 1.568606 -0.000000 -0.000000
1022
root 1.247619 32.751679 0.794651 12.635059 4.834787 0.868807
Spine -16.008235 5.727495 -1.669504
Head -11.435039 -8.553386 3.546511
LeftShoulder -9.923784 19.874964 9.820564
LeftArm 24.613965 28.257390 -65.230563
LeftForeArm -0.099778 0.000000 27.418291
LeftHand -18.463663 -0.000000 -18.681304
LeftHandThumb1 -26.253704 0.000000 33.147579
RightShoulder -18.820810 8.944156 -20.899020
RightArm -11.249070 -28.540040 84.512749
RightForeArm -21.746938 -0.000000 41.310136
RightHand -2.325911 -0.000000 25.693594
RightHandThumb1 -24.326973 -0.000000 -32.862282
LeftUpLeg -9.580520 6.415879 1.968804
LeftLeg 0.714779 -0.000000 -0.000000
LeftFoot -9.957302 1.769185 -12.180818
LeftToeBase 11.587752 -0.000000 -0.000000
RightUpLeg -8.959382 -12.044430 -5.096220
RightLeg 3.956322 -0.000000 -0.000000
RightFoot -9.473600 -6.605397 5.446638
RightToeBase 1.669269 -0.000000 -0.000000
1023
root 1.237985 32.753621 0.806009 12.515696 4.856928 0.710348
Spine -16.124388 5.727213 -1.501650
Head -10.977804 -8.609256 3.614117
LeftShoulder -9.814480 19.651907 9.759724
LeftArm 24.957207 27.361762 -64.562839
LeftForeArm -0.189876 0.000000 27.784401
LeftHand -18.449463 -0.000000 -18.620963
LeftHandThumb1 -26.253704 0.000000 33.147579
RightShoulder -18.749372 9.093343 -21.040392
RightArm -10.617187 -28.519672 83.769007
RightForeArm -21.184984 -0.000000 42.770949
RightHand -2.249354 0.000000 25.623868
RightHandThumb1 -24.326973 -0.000000 -32.862282
LeftUpLeg -9.427988 6.457295 2.160733
LeftLeg 0.657977 -0.000000 -0.000000
LeftFoot -9.968243 1.700805 -12.224089
LeftToeBase 11.595769 -0.000000 -0.000000
RightUpLeg -8.783363 -12.098151 -4.926713
RightLeg 3.834524 -0.000000 -0.000000
RightFoot -9.299944 -6.595134 5.347644
RightToeBase 1.544764 -0.000000 -0.000000
1024
root 1.246210 32.753820 0.816396 12.466271 4.848959 0.733406
Spine -16.334074 5.714632 -1.567100
Head -10.473450 -8.665746 3.733750
LeftShoulder -9.718862 19.486279 9.806596
LeftArm 25.356413 26.270005 -64.005921
LeftForeArm -0.355693 0.000000 28.094441
LeftHand -18.332864 -0.000000 -18.232876
LeftHandThumb1 -26.253704 0.000000 33.147579
RightShoulder -18.633934 9.214492 -21.150469
RightArm -10.010135 -28.312870 83.023346
RightForeArm -20.919130 0.000000 44.320915
RightHand -2.462039 0.000000 25.096302
RightHandThumb1 -24.326973 -0.000000 -32.862282
LeftUpLeg -9.323446 6.468527 2.123001
LeftLeg 0.588933 -0.000000 -0.000000
LeftFoot -9.947443 1.716738 -12.229449
LeftToeBase 11.618274 -0.000000 -0.000000
RightUpLeg -8.654740 -12.155685 -4.981979
RightLeg 3.717685 -0.000000 -0.000000
RightFoot -9.283417 -6.487509 5.490997
RightToeBase 1.632218 -0.000000 -0.000000
1025
root 1.246544 32.754838 0.836206 12.377342 4.771223 0.698133
Spine -16.537392 5.809485 -1.610099
Head -9.918450 -8.784639 3.883814
LeftShoulder -9.635128 19.360587 9.852044
LeftArm 25.768049 25.023280 -63.466299
LeftForeArm -0.414810 -0.000000 28.542769
LeftHand -18.430911 -0.000000 -18.198958
LeftHandThumb1 -26.253704 0.000000 33.147579
RightShoulder -18.588395 9.407942 -21.261380
RightArm -9.399019 -27.902763 82.307164
RightForeArm -20.849933 -0.000000 45.731199
RightHand -2.690102 -0.000000 24.707095
RightHandThumb1 -24.326973 -0.000000 -32.862282
LeftUpLeg -9.207440 6.837759 2.095536
LeftLeg 0.605583 -0.000000 -0.000000
LeftFoot -9.938278 1.544147 -12.049813
LeftToeBase 11.573652 -0.000000 -0.000000
RightUpLeg -8.504297 -12.191402 -4.965242
RightLeg 3.616914 -0.000000 -0.000000
RightFoot -9.193835 -6.406434 5.418539
RightToeBase 1.576531 -0.000000 -0.000000
